<?xml version="1.0" encoding="UTF-8"?>
<svg width="700px" height="700px" viewBox="0 0 700 700" version="1.1" xmlns="http://www.w3.org/2000/svg" xmlns:xlink="http://www.w3.org/1999/xlink">
    <!-- Generator: Sketch 56.2 (81672) - https://sketch.com -->
    <title>blue_fill_notification</title>
    <desc>Created with Sketch.</desc>
    <g id="blue_fill_notification" stroke="none" stroke-width="1" fill="none" fill-rule="evenodd">
        <g id="Rectangle-6" transform="translate(35.000000, 33.000000)" fill="#FFFFFF">
            <path d="M35.3017134,455.850434 C34.4343647,454.421104 33.530941,452.989393 32.5903487,451.555553 L33.5267258,452.414859 C12.0778512,410.256577 0,362.628205 0,312.208332 C0,139.780431 141.254161,0 315.5,0 C489.745839,0 631,139.780431 631,312.208332 C631,484.636232 489.745839,624.416663 315.5,624.416663 C271.287927,624.416663 229.199887,615.417476 191.004414,599.169183 C-93.2909361,691.485378 102.192195,590.389124 41.0183634,466.259001 C39.0485389,462.829486 37.1424573,459.359437 35.3017134,455.850434 Z M222.231719,207.757256 C206.5465,207.757256 193.831117,220.472638 193.831117,236.157858 C193.831117,251.843077 206.5465,264.558459 222.231719,264.558459 L374.237119,264.558459 C389.922338,264.558459 402.63772,251.843077 402.63772,236.157858 C402.63772,220.472638 389.922338,207.757256 374.237119,207.757256 L222.231719,207.757256 Z M222.231719,372.416924 C206.5465,372.416924 193.831117,385.132306 193.831117,400.817526 C193.831117,416.502745 206.5465,429.218127 222.231719,429.218127 L374.237119,429.218127 C389.922338,429.218127 402.63772,416.502745 402.63772,400.817526 C402.63772,385.132306 389.922338,372.416924 374.237119,372.416924 L222.231719,372.416924 Z M253.584062,290.08709 C237.898842,290.08709 225.18346,302.802472 225.18346,318.487692 C225.18346,334.172911 237.898842,346.888293 253.584062,346.888293 L405.589462,346.888293 C421.274681,346.888293 433.990063,334.172911 433.990063,318.487692 C433.990063,302.802472 421.274681,290.08709 405.589462,290.08709 L253.584062,290.08709 Z" id="Mask"></path>
        </g>
    </g>
</svg>